Cantarell-Regular_20180814.ufo
<glyph name="percent" format="2">
	<unicode hex="0025"/>
	<advance width="999"/>
	<outline>
		<contour>
			<point x="269" y="0" type="line"/>
			<point x="346" y="0" type="line"/>
			<point x="728" y="694" type="line"/>
			<point x="645" y="694" type="line"/>
		</contour>
		<contour>
			<point x="248" y="262" type="curve" smooth="yes"/>
			<point x="349" y="262"/>
			<point x="415" y="349"/>
			<point x="415" y="485" type="curve" smooth="yes"/>
			<point x="415" y="618"/>
			<point x="351" y="704"/>
			<point x="251" y="704" type="curve" smooth="yes"/>
			<point x="148" y="704"/>
			<point x="82" y="617"/>
			<point x="82" y="481" type="curve" smooth="yes"/>
			<point x="82" y="347"/>
			<point x="147" y="262"/>
		</contour>
		<contour>
			<point x="250" y="328" type="curve" smooth="yes"/>
			<point x="196" y="328"/>
			<point x="161" y="389"/>
			<point x="161" y="485" type="curve" smooth="yes"/>
			<point x="161" y="579"/>
			<point x="195" y="638"/>
			<point x="248" y="638" type="curve" smooth="yes"/>
			<point x="302" y="638"/>
			<point x="337" y="577"/>
			<point x="337" y="480" type="curve" smooth="yes"/>
			<point x="337" y="387"/>
			<point x="303" y="328"/>
		</contour>
		<contour>
			<point x="750" y="-6" type="curve" smooth="yes"/>
			<point x="851" y="-6"/>
			<point x="917" y="81"/>
			<point x="917" y="217" type="curve" smooth="yes"/>
			<point x="917" y="350"/>
			<point x="853" y="436"/>
			<point x="753" y="436" type="curve" smooth="yes"/>
			<point x="650" y="436"/>
			<point x="584" y="349"/>
			<point x="584" y="213" type="curve" smooth="yes"/>
			<point x="584" y="79"/>
			<point x="649" y="-6"/>
		</contour>
		<contour>
			<point x="752" y="60" type="curve" smooth="yes"/>
			<point x="698" y="60"/>
			<point x="663" y="121"/>
			<point x="663" y="217" type="curve" smooth="yes"/>
			<point x="663" y="311"/>
			<point x="697" y="370"/>
			<point x="750" y="370" type="curve" smooth="yes"/>
			<point x="804" y="370"/>
			<point x="839" y="309"/>
			<point x="839" y="212" type="curve" smooth="yes"/>
			<point x="839" y="119"/>
			<point x="805" y="60"/>
		</contour>
	</outline>
</glyph>
<glyph name="comma" format="2">
	<unicode hex="002C"/>
	<advance width="246"/>
	<outline>
		<contour>
			<point x="61" y="-174" type="curve"/>
			<point x="124" y="-174" type="line"/>
			<point x="160" y="-84"/>
			<point x="181" y="20"/>
			<point x="181" y="107" type="curve"/>
			<point x="98" y="107" type="line"/>
			<point x="98" y="17"/>
			<point x="84" y="-88"/>
		</contour>
	</outline>
</glyph>
<glyph name="O" format="2">
	<unicode hex="004F"/>
	<advance width="788"/>
	<outline>
		<contour>
			<point x="386" y="-7" type="curve" smooth="yes"/>
			<point x="586" y="-7"/>
			<point x="720" y="138"/>
			<point x="720" y="356" type="curve" smooth="yes"/>
			<point x="720" y="564"/>
			<point x="590" y="703"/>
			<point x="396" y="703" type="curve" smooth="yes"/>
			<point x="199" y="703"/>
			<point x="68" y="559"/>
			<point x="68" y="344" type="curve" smooth="yes"/>
			<point x="68" y="133"/>
			<point x="195" y="-7"/>
		</contour>
		<contour>
			<point x="396" y="65" type="curve" smooth="yes"/>
			<point x="250" y="65"/>
			<point x="153" y="181"/>
			<point x="153" y="356" type="curve" smooth="yes"/>
			<point x="153" y="520"/>
			<point x="246" y="630"/>
			<point x="386" y="630" type="curve" smooth="yes"/>
			<point x="535" y="630"/>
			<point x="635" y="516"/>
			<point x="635" y="344" type="curve" smooth="yes"/>
			<point x="635" y="177"/>
			<point x="539" y="65"/>
		</contour>
	</outline>
	<anchor name="Qtail" x="592" y="107"/>
	<anchor name="bottom" x="394" y="0"/>
	<anchor name="center" x="394" y="347"/>
	<anchor name="ogonek" x="475" y="10"/>
	<anchor name="top" x="394" y="694"/>
	<anchor name="topleft" x="23" y="694"/>
	<anchor name="topright" x="709" y="694"/>
	<note>
		O
	</note>
</glyph>
<glyph name="V" format="2">
	<unicode hex="0056"/>
	<advance width="657"/>
	<outline>
		<contour>
			<point x="288" y="0" type="line"/>
			<point x="369" y="0" type="line"/>
			<point x="622" y="694" type="line"/>
			<point x="538" y="694" type="line"/>
			<point x="307" y="29" type="line"/>
			<point x="357" y="29" type="line"/>
			<point x="130" y="694" type="line"/>
			<point x="35" y="694" type="line"/>
		</contour>
	</outline>
	<anchor name="bottom" x="329" y="0"/>
	<anchor name="top" x="329" y="694"/>
	<note>
		V
	</note>
</glyph>
<glyph name="W" format="2">
	<unicode hex="0057"/>
	<advance width="1030"/>
	<outline>
		<contour>
			<point x="256" y="0" type="line"/>
			<point x="339" y="0" type="line"/>
			<point x="531" y="653" type="line"/>
			<point x="489" y="653" type="line"/>
			<point x="697" y="0" type="line"/>
			<point x="777" y="0" type="line"/>
			<point x="993" y="694" type="line"/>
			<point x="910" y="694" type="line"/>
			<point x="718" y="39" type="line"/>
			<point x="763" y="39" type="line"/>
			<point x="562" y="689" type="line"/>
			<point x="469" y="689" type="line"/>
			<point x="280" y="39" type="line"/>
			<point x="320" y="39" type="line"/>
			<point x="133" y="694" type="line"/>
			<point x="37" y="694" type="line"/>
		</contour>
	</outline>
	<anchor name="bottom" x="512" y="0"/>
	<anchor name="top" x="512" y="694"/>
	<note>
		W
	</note>
</glyph>
<glyph name="bracketleft" format="2">
	<unicode hex="005B"/>
	<advance width="373"/>
	<outline>
		<contour>
			<point x="101" y="-180" type="line"/>
			<point x="328" y="-180" type="line"/>
			<point x="328" y="-113" type="line"/>
			<point x="176" y="-113" type="line"/>
			<point x="176" y="672" type="line"/>
			<point x="328" y="672" type="line"/>
			<point x="328" y="739" type="line"/>
			<point x="101" y="739" type="line"/>
		</contour>
	</outline>
</glyph>
<glyph name="e" format="2">
	<unicode hex="0065"/>
	<advance width="530"/>
	<outline>
		<contour>
			<point x="301" y="-10" type="curve" smooth="yes"/>
			<point x="356" y="-10"/>
			<point x="416" y="3"/>
			<point x="459" y="26" type="curve"/>
			<point x="441" y="84" type="line"/>
			<point x="404" y="66"/>
			<point x="357" y="55"/>
			<point x="315" y="55" type="curve" smooth="yes"/>
			<point x="202" y="55"/>
			<point x="135" y="130"/>
			<point x="135" y="255" type="curve" smooth="yes"/>
			<point x="135" y="364"/>
			<point x="184" y="424"/>
			<point x="272" y="424" type="curve" smooth="yes"/>
			<point x="354" y="424"/>
			<point x="402" y="371"/>
			<point x="402" y="279" type="curve"/>
			<point x="121" y="279" type="line"/>
			<point x="121" y="219" type="line"/>
			<point x="473" y="219" type="line"/>
			<point x="475" y="234"/>
			<point x="477" y="269"/>
			<point x="477" y="288" type="curve" smooth="yes"/>
			<point x="477" y="409"/>
			<point x="397" y="492"/>
			<point x="278" y="492" type="curve" smooth="yes"/>
			<point x="144" y="492"/>
			<point x="53" y="387"/>
			<point x="53" y="239" type="curve" smooth="yes"/>
			<point x="53" y="85"/>
			<point x="148" y="-10"/>
		</contour>
	</outline>
	<anchor name="bottom" x="285" y="0"/>
	<anchor name="ogonek" x="430" y="10"/>
	<anchor name="top" x="270" y="482"/>
	<note>
		e
	</note>
</glyph>
<glyph name="f" format="2">
	<unicode hex="0066"/>
	<advance width="358"/>
	<outline>
		<contour>
			<point x="100" y="0" type="line"/>
			<point x="180" y="0" type="line"/>
			<point x="180" y="587" type="line" smooth="yes"/>
			<point x="180" y="649"/>
			<point x="209" y="681"/>
			<point x="264" y="681" type="curve" smooth="yes"/>
			<point x="290" y="681"/>
			<point x="324" y="676"/>
			<point x="349" y="664" type="curve"/>
			<point x="366" y="724" type="line"/>
			<point x="335" y="739"/>
			<point x="304" y="749"/>
			<point x="270" y="749" type="curve" smooth="yes"/>
			<point x="168" y="749"/>
			<point x="100" y="680"/>
			<point x="100" y="577" type="curve" smooth="yes"/>
		</contour>
		<contour>
			<point x="28" y="415" type="line"/>
			<point x="330" y="415" type="line"/>
			<point x="330" y="482" type="line"/>
			<point x="28" y="482" type="line"/>
		</contour>
	</outline>
	<anchor name="bottom" x="140" y="0"/>
	<anchor name="top" x="267" y="739"/>
	<note>
		f
	</note>
</glyph>
<glyph name="m" format="2">
	<unicode hex="006D"/>
	<advance width="889"/>
	<outline>
		<contour>
			<point x="85" y="0" type="line"/>
			<point x="165" y="0" type="line"/>
			<point x="165" y="426" type="line"/>
			<point x="141" y="482" type="line"/>
			<point x="85" y="482" type="line"/>
		</contour>
		<contour>
			<point x="409" y="0" type="line"/>
			<point x="489" y="0" type="line"/>
			<point x="489" y="316" type="line" smooth="yes"/>
			<point x="489" y="423"/>
			<point x="419" y="492"/>
			<point x="313" y="492" type="curve" smooth="yes"/>
			<point x="243" y="492"/>
			<point x="175" y="462"/>
			<point x="125" y="409" type="curve"/>
			<point x="144" y="358" type="line"/>
			<point x="183" y="399"/>
			<point x="235" y="422"/>
			<point x="290" y="422" type="curve" smooth="yes"/>
			<point x="367" y="422"/>
			<point x="409" y="378"/>
			<point x="409" y="300" type="curve" smooth="yes"/>
		</contour>
		<contour>
			<point x="733" y="0" type="line"/>
			<point x="813" y="0" type="line"/>
			<point x="813" y="316" type="line" smooth="yes"/>
			<point x="813" y="423"/>
			<point x="743" y="492"/>
			<point x="636" y="492" type="curve" smooth="yes"/>
			<point x="567" y="492"/>
			<point x="499" y="462"/>
			<point x="449" y="409" type="curve"/>
			<point x="468" y="358" type="line"/>
			<point x="507" y="399"/>
			<point x="559" y="422"/>
			<point x="614" y="422" type="curve" smooth="yes"/>
			<point x="691" y="422"/>
			<point x="733" y="378"/>
			<point x="733" y="300" type="curve" smooth="yes"/>
		</contour>
	</outline>
	<anchor name="bottom" x="445" y="0"/>
	<anchor name="top" x="445" y="482"/>
	<note>
		m
	</note>
</glyph>
<glyph name="z" format="2">
	<unicode hex="007A"/>
	<advance width="471"/>
	<outline>
		<contour>
			<point x="42" y="0" type="line"/>
			<point x="432" y="0" type="line"/>
			<point x="432" y="67" type="line"/>
			<point x="120" y="67" type="line"/>
			<point x="132" y="49" type="line"/>
			<point x="420" y="433" type="line"/>
			<point x="420" y="482" type="line"/>
			<point x="42" y="482" type="line"/>
			<point x="42" y="415" type="line"/>
			<point x="341" y="415" type="line"/>
			<point x="329" y="433" type="line"/>
			<point x="42" y="49" type="line"/>
		</contour>
	</outline>
	<anchor name="bottom" x="235" y="0"/>
	<anchor name="top" x="235" y="482"/>
	<note>
		z
	</note>
</glyph>
<glyph name="ordfeminine" format="2">
	<unicode hex="00AA"/>
	<advance width="383"/>
	<outline>
		<contour>
			<point x="281" y="380" type="line"/>
			<point x="332" y="380" type="line"/>
			<point x="332" y="608" type="line" smooth="yes"/>
			<point x="332" y="699"/>
			<point x="279" y="750"/>
			<point x="182" y="750" type="curve" smooth="yes"/>
			<point x="135" y="750"/>
			<point x="81" y="737"/>
			<point x="40" y="716" type="curve"/>
			<point x="57" y="666" type="line"/>
			<point x="94" y="682"/>
			<point x="135" y="690"/>
			<point x="167" y="690" type="curve" smooth="yes"/>
			<point x="229" y="690"/>
			<point x="262" y="663"/>
			<point x="262" y="612" type="curve" smooth="yes"/>
			<point x="262" y="441" type="line"/>
		</contour>
		<contour>
			<point x="153" y="373" type="curve" smooth="yes"/>
			<point x="227" y="373"/>
			<point x="284" y="413"/>
			<point x="305" y="485" type="curve"/>
			<point x="283" y="498" type="line"/>
			<point x="264" y="455"/>
			<point x="223" y="429"/>
			<point x="176" y="429" type="curve" smooth="yes"/>
			<point x="133" y="429"/>
			<point x="102" y="452"/>
			<point x="102" y="487" type="curve" smooth="yes"/>
			<point x="102" y="531"/>
			<point x="152" y="549"/>
			<point x="275" y="549" type="curve"/>
			<point x="275" y="591" type="line"/>
			<point x="106" y="591"/>
			<point x="31" y="556"/>
			<point x="31" y="477" type="curve" smooth="yes"/>
			<point x="31" y="414"/>
			<point x="79" y="373"/>
		</contour>
	</outline>
</glyph>
<glyph name="micro" format="2">
	<unicode hex="00B5"/>
	<advance width="644"/>
	<outline>
		<contour>
			<point x="325" y="-10" type="curve" smooth="yes"/>
			<point x="382" y="-10"/>
			<point x="430" y="14"/>
			<point x="486" y="73" type="curve"/>
			<point x="467" y="134" type="line"/>
			<point x="427" y="82"/>
			<point x="386" y="60"/>
			<point x="334" y="60" type="curve" smooth="yes"/>
			<point x="257" y="60"/>
			<point x="202" y="108"/>
			<point x="202" y="182" type="curve"/>
			<point x="162" y="166" type="line"/>
			<point x="162" y="60"/>
			<point x="227" y="-10"/>
		</contour>
		<contour>
			<point x="127" y="-217" type="line"/>
			<point x="202" y="-217" type="line"/>
			<point x="202" y="482" type="line"/>
			<point x="127" y="482" type="line"/>
		</contour>
		<contour>
			<point x="480" y="0" type="line"/>
			<point x="536" y="0" type="line"/>
			<point x="536" y="482" type="line"/>
			<point x="456" y="482" type="line"/>
			<point x="456" y="56" type="line"/>
		</contour>
	</outline>
</glyph>
<glyph name="multiply" format="2">
	<unicode hex="00D7"/>
	<advance width="580"/>
	<outline>
		<contour>
			<point x="459" y="90" type="line"/>
			<point x="509" y="140" type="line"/>
			<point x="134" y="537" type="line"/>
			<point x="84" y="487" type="line"/>
		</contour>
		<contour>
			<point x="126" y="96" type="line"/>
			<point x="505" y="483" type="line"/>
			<point x="455" y="533" type="line"/>
			<point x="76" y="146" type="line"/>
		</contour>
	</outline>
</glyph>
<glyph name="divide" format="2">
	<unicode hex="00F7"/>
	<advance width="644"/>
	<outline>
		<contour>
			<point x="73" y="306" type="line"/>
			<point x="565" y="306" type="line"/>
			<point x="565" y="375" type="line"/>
			<point x="73" y="375" type="line"/>
		</contour>
		<contour>
			<point x="319" y="485" type="curve" smooth="yes"/>
			<point x="355" y="485"/>
			<point x="376" y="506"/>
			<point x="376" y="542" type="curve" smooth="yes"/>
			<point x="376" y="578"/>
			<point x="355" y="599"/>
			<point x="319" y="599" type="curve" smooth="yes"/>
			<point x="283" y="599"/>
			<point x="262" y="578"/>
			<point x="262" y="542" type="curve" smooth="yes"/>
			<point x="262" y="506"/>
			<point x="283" y="485"/>
		</contour>
		<contour>
			<point x="319" y="82" type="curve" smooth="yes"/>
			<point x="355" y="82"/>
			<point x="376" y="103"/>
			<point x="376" y="139" type="curve" smooth="yes"/>
			<point x="376" y="175"/>
			<point x="355" y="196"/>
			<point x="319" y="196" type="curve" smooth="yes"/>
			<point x="283" y="196"/>
			<point x="262" y="175"/>
			<point x="262" y="139" type="curve" smooth="yes"/>
			<point x="262" y="103"/>
			<point x="283" y="82"/>
		</contour>
	</outline>
</glyph>
<glyph name="Eng" format="2">
	<unicode hex="014A"/>
	<advance width="778"/>
	<outline>
		<contour>
			<point x="106" y="0" type="line"/>
			<point x="184" y="0" type="line"/>
			<point x="184" y="605" type="line"/>
			<point x="167" y="605" type="line"/>
			<point x="601" y="-25" type="line"/>
			<point x="672" y="0" type="line"/>
			<point x="672" y="694" type="line"/>
			<point x="594" y="694" type="line"/>
			<point x="594" y="87" type="line"/>
			<point x="612" y="87" type="line"/>
			<point x="201" y="694" type="line"/>
			<point x="106" y="694" type="line"/>
		</contour>
		<contour>
			<point x="549" y="-234" type="line"/>
			<point x="623" y="-201"/>
			<point x="672" y="-117"/>
			<point x="672" y="-23" type="curve" smooth="yes"/>
			<point x="672" y="0" type="line"/>
			<point x="592" y="0" type="line"/>
			<point x="592" y="-35" type="line" smooth="yes"/>
			<point x="592" y="-102"/>
			<point x="564" y="-162"/>
			<point x="522" y="-186" type="curve"/>
		</contour>
	</outline>
</glyph>
<glyph name="tonos" format="2">
	<unicode hex="0384"/>
	<advance width="257"/>
	<outline>
		<contour>
			<point x="133" y="560" type="line"/>
			<point x="191" y="732" type="line"/>
			<point x="108" y="745" type="line"/>
			<point x="83" y="567" type="line"/>
		</contour>
	</outline>
	<anchor name="_top" x="105" y="482"/>
</glyph>
<glyph name="Lje-cy" format="2">
	<unicode hex="0409"/>
	<advance width="1079"/>
	<outline>
		<contour>
			<point x="53" y="-10" type="line"/>
			<point x="192" y="20"/>
			<point x="274" y="151"/>
			<point x="274" y="342" type="curve" smooth="yes"/>
			<point x="274" y="624" type="line"/>
			<point x="536" y="624" type="line"/>
			<point x="536" y="0" type="line"/>
			<point x="617" y="0" type="line"/>
			<point x="617" y="694" type="line"/>
			<point x="195" y="694" type="line"/>
			<point x="195" y="342" type="line" smooth="yes"/>
			<point x="195" y="191"/>
			<point x="139" y="87"/>
			<point x="43" y="62" type="curve"/>
		</contour>
		<contour>
			<point x="583" y="0" type="line"/>
			<point x="768" y="0" type="line" smooth="yes"/>
			<point x="922" y="0"/>
			<point x="1022" y="85"/>
			<point x="1022" y="217" type="curve" smooth="yes"/>
			<point x="1022" y="339"/>
			<point x="929" y="427"/>
			<point x="801" y="427" type="curve" smooth="yes"/>
			<point x="585" y="427" type="line"/>
			<point x="585" y="355" type="line"/>
			<point x="792" y="355" type="line" smooth="yes"/>
			<point x="876" y="355"/>
			<point x="937" y="290"/>
			<point x="937" y="200" type="curve" smooth="yes"/>
			<point x="937" y="115"/>
			<point x="883" y="72"/>
			<point x="778" y="72" type="curve" smooth="yes"/>
			<point x="583" y="72" type="line"/>
		</contour>
	</outline>
</glyph>
<glyph name="Dzhe-cy" format="2">
	<unicode hex="040F"/>
	<advance width="751"/>
	<outline>
		<contour>
			<point x="343" y="-187" type="line"/>
			<point x="418" y="-187" type="line"/>
			<point x="418" y="0" type="line"/>
			<point x="645" y="0" type="line"/>
			<point x="645" y="694" type="line"/>
			<point x="563" y="694" type="line"/>
			<point x="563" y="71" type="line"/>
			<point x="188" y="71" type="line"/>
			<point x="188" y="694" type="line"/>
			<point x="106" y="694" type="line"/>
			<point x="106" y="0" type="line"/>
			<point x="343" y="0" type="line"/>
		</contour>
	</outline>
</glyph>
<glyph name="Zhe-cy" format="2">
	<unicode hex="0416"/>
	<advance width="980"/>
	<outline>
		<contour>
			<point x="847" y="0" type="line"/>
			<point x="946" y="0" type="line"/>
			<point x="710" y="376" type="line"/>
			<point x="711" y="356" type="line"/>
			<point x="933" y="694" type="line"/>
			<point x="838" y="694" type="line"/>
			<point x="620" y="361" type="line"/>
		</contour>
		<contour>
			<point x="34" y="0" type="line"/>
			<point x="129" y="0" type="line"/>
			<point x="360" y="363" type="line"/>
			<point x="146" y="694" type="line"/>
			<point x="47" y="694" type="line"/>
			<point x="272" y="349" type="line"/>
			<point x="270" y="368" type="line"/>
		</contour>
		<contour>
			<point x="292" y="323" type="line"/>
			<point x="672" y="323" type="line"/>
			<point x="672" y="395" type="line"/>
			<point x="292" y="395" type="line"/>
		</contour>
		<contour>
			<point x="449" y="0" type="line"/>
			<point x="532" y="0" type="line"/>
			<point x="532" y="694" type="line"/>
			<point x="449" y="694" type="line"/>
		</contour>
	</outline>
	<anchor name="bottomright" x="910" y="0"/>
	<anchor name="top" x="491" y="694"/>
</glyph>
<glyph name="ge-cy" format="2">
	<unicode hex="0433"/>
	<advance width="440"/>
	<outline>
		<contour>
			<point x="85" y="0" type="line"/>
			<point x="164" y="0" type="line"/>
			<point x="164" y="414" type="line"/>
			<point x="422" y="414" type="line"/>
			<point x="422" y="482" type="line"/>
			<point x="85" y="482" type="line"/>
		</contour>
	</outline>
	<anchor name="bottomright" x="167" y="0"/>
	<anchor name="top" x="225" y="482"/>
</glyph>
<glyph name="te-cy" format="2">
	<unicode hex="0442"/>
	<advance width="481"/>
	<outline>
		<contour>
			<point x="200" y="0" type="line"/>
			<point x="279" y="0" type="line"/>
			<point x="279" y="460" type="line"/>
			<point x="200" y="460" type="line"/>
		</contour>
		<contour>
			<point x="18" y="415" type="line"/>
			<point x="463" y="415" type="line"/>
			<point x="463" y="482" type="line"/>
			<point x="18" y="482" type="line"/>
		</contour>
	</outline>
	<anchor name="bottomright" x="471" y="0"/>
</glyph>
<glyph name="yeru-cy" format="2">
	<unicode hex="044B"/>
	<advance width="713"/>
	<outline>
		<contour>
			<point x="548" y="-1" type="line"/>
			<point x="628" y="-1" type="line"/>
			<point x="628" y="482" type="line"/>
			<point x="548" y="482" type="line"/>
		</contour>
		<contour>
			<point x="85" y="0" type="line"/>
			<point x="257" y="0" type="line" smooth="yes"/>
			<point x="384" y="0"/>
			<point x="461" y="62"/>
			<point x="461" y="164" type="curve" smooth="yes"/>
			<point x="461" y="259"/>
			<point x="391" y="320"/>
			<point x="286" y="320" type="curve" smooth="yes"/>
			<point x="136" y="320" type="line"/>
			<point x="136" y="255" type="line"/>
			<point x="274" y="255" type="line" smooth="yes"/>
			<point x="337" y="255"/>
			<point x="381" y="214"/>
			<point x="381" y="156" type="curve" smooth="yes"/>
			<point x="381" y="100"/>
			<point x="339" y="67"/>
			<point x="268" y="67" type="curve" smooth="yes"/>
			<point x="165" y="67" type="line"/>
			<point x="165" y="482" type="line"/>
			<point x="85" y="482" type="line"/>
		</contour>
	</outline>
	<anchor name="top" x="357" y="482"/>
</glyph>
<glyph name="softsign-cy" format="2">
	<unicode hex="044C"/>
	<advance width="515"/>
	<outline>
		<contour>
			<point x="85" y="0" type="line"/>
			<point x="271" y="0" type="line" smooth="yes"/>
			<point x="397" y="0"/>
			<point x="474" y="62"/>
			<point x="474" y="164" type="curve" smooth="yes"/>
			<point x="474" y="259"/>
			<point x="404" y="320"/>
			<point x="301" y="320" type="curve" smooth="yes"/>
			<point x="136" y="320" type="line"/>
			<point x="136" y="255" type="line"/>
			<point x="288" y="255" type="line" smooth="yes"/>
			<point x="350" y="255"/>
			<point x="394" y="214"/>
			<point x="394" y="156" type="curve" smooth="yes"/>
			<point x="394" y="100"/>
			<point x="352" y="67"/>
			<point x="282" y="67" type="curve" smooth="yes"/>
			<point x="165" y="67" type="line"/>
			<point x="165" y="482" type="line"/>
			<point x="85" y="482" type="line"/>
		</contour>
	</outline>
</glyph>
<glyph name="ereversed-cy" format="2">
	<unicode hex="044D"/>
	<advance width="492"/>
	<outline>
		<contour>
			<point x="198" y="-7" type="curve" smooth="yes"/>
			<point x="347" y="-7"/>
			<point x="438" y="89"/>
			<point x="438" y="247" type="curve" smooth="yes"/>
			<point x="438" y="400"/>
			<point x="353" y="492"/>
			<point x="211" y="492" type="curve" smooth="yes"/>
			<point x="162" y="492"/>
			<point x="86" y="480"/>
			<point x="44" y="460" type="curve"/>
			<point x="62" y="401" type="line"/>
			<point x="94" y="414"/>
			<point x="158" y="422"/>
			<point x="192" y="422" type="curve" smooth="yes"/>
			<point x="298" y="422"/>
			<point x="359" y="354"/>
			<point x="359" y="235" type="curve" smooth="yes"/>
			<point x="359" y="122"/>
			<point x="304" y="63"/>
			<point x="201" y="63" type="curve" smooth="yes"/>
			<point x="164" y="63"/>
			<point x="98" y="71"/>
			<point x="62" y="84" type="curve"/>
			<point x="40" y="23" type="line"/>
			<point x="85" y="2"/>
			<point x="153" y="-7"/>
		</contour>
		<contour>
			<point x="96" y="219" type="line"/>
			<point x="380" y="219" type="line"/>
			<point x="380" y="284" type="line"/>
			<point x="96" y="284" type="line"/>
		</contour>
	</outline>
	<anchor name="top" x="245" y="482"/>
</glyph>
<glyph name="ia-cy" format="2">
	<unicode hex="044F"/>
	<advance width="522"/>
	<outline>
		<contour>
			<point x="231" y="173" type="curve" smooth="yes"/>
			<point x="384" y="173" type="line"/>
			<point x="384" y="238" type="line"/>
			<point x="242" y="238" type="line" smooth="yes"/>
			<point x="176" y="238"/>
			<point x="130" y="275"/>
			<point x="130" y="330" type="curve" smooth="yes"/>
			<point x="130" y="382"/>
			<point x="170" y="412"/>
			<point x="231" y="412" type="curve" smooth="yes"/>
			<point x="384" y="412" type="line"/>
			<point x="384" y="482" type="line"/>
			<point x="242" y="482" type="line" smooth="yes"/>
			<point x="127" y="482"/>
			<point x="50" y="418"/>
			<point x="50" y="322" type="curve" smooth="yes"/>
			<point x="50" y="230"/>
			<point x="121" y="173"/>
		</contour>
		<contour>
			<point x="38" y="0" type="line"/>
			<point x="134" y="0" type="line"/>
			<point x="274" y="204" type="line"/>
			<point x="186" y="204" type="line"/>
		</contour>
		<contour>
			<point x="357" y="0" type="line"/>
			<point x="437" y="0" type="line"/>
			<point x="437" y="482" type="line"/>
			<point x="357" y="482" type="line"/>
		</contour>
	</outline>
	<anchor name="top" x="260" y="482"/>
</glyph>
<glyph name="dzhe-cy" format="2">
	<unicode hex="045F"/>
	<advance width="580"/>
	<outline>
		<contour>
			<point x="256" y="-130" type="line"/>
			<point x="330" y="-130" type="line"/>
			<point x="330" y="0" type="line"/>
			<point x="495" y="0" type="line"/>
			<point x="495" y="482" type="line"/>
			<point x="414" y="482" type="line"/>
			<point x="414" y="71" type="line"/>
			<point x="166" y="71" type="line"/>
			<point x="166" y="482" type="line"/>
			<point x="85" y="482" type="line"/>
			<point x="85" y="0" type="line"/>
			<point x="256" y="0" type="line"/>
		</contour>
	</outline>
</glyph>
<glyph name="Yusbig-cy" format="2">
	<unicode hex="046A"/>
	<advance width="931"/>
	<outline>
		<contour>
			<point x="381" y="355" type="line"/>
			<point x="478" y="355" type="line"/>
			<point x="254" y="650" type="line"/>
			<point x="247" y="624" type="line"/>
			<point x="687" y="624" type="line"/>
			<point x="677" y="650" type="line"/>
			<point x="462" y="366" type="line"/>
			<point x="556" y="366" type="line"/>
			<point x="751" y="622" type="line"/>
			<point x="751" y="694" type="line"/>
			<point x="179" y="694" type="line"/>
			<point x="179" y="622" type="line"/>
		</contour>
		<contour>
			<point x="39" y="0" type="line"/>
			<point x="134" y="0" type="line"/>
			<point x="338" y="332" type="line"/>
			<point x="290" y="305" type="line"/>
			<point x="424" y="305" type="line"/>
			<point x="424" y="0" type="line"/>
			<point x="507" y="0" type="line"/>
			<point x="507" y="305" type="line"/>
			<point x="639" y="305" type="line"/>
			<point x="591" y="332" type="line"/>
			<point x="792" y="0" type="line"/>
			<point x="891" y="0" type="line"/>
			<point x="662" y="375" type="line"/>
			<point x="274" y="375" type="line"/>
		</contour>
	</outline>
</glyph>
<glyph name="yusbig-cy" format="2">
	<unicode hex="046B"/>
	<advance width="731"/>
	<outline>
		<contour>
			<point x="281" y="251" type="line"/>
			<point x="375" y="251" type="line"/>
			<point x="206" y="446" type="line"/>
			<point x="194" y="416" type="line"/>
			<point x="538" y="416" type="line"/>
			<point x="524" y="446" type="line"/>
			<point x="363" y="259" type="line"/>
			<point x="453" y="259" type="line"/>
			<point x="599" y="415" type="line"/>
			<point x="599" y="486" type="line"/>
			<point x="130" y="486" type="line"/>
			<point x="130" y="415" type="line"/>
		</contour>
		<contour>
			<point x="20" y="0" type="line"/>
			<point x="113" y="0" type="line"/>
			<point x="266" y="226" type="line"/>
			<point x="217" y="198" type="line"/>
			<point x="326" y="198" type="line"/>
			<point x="326" y="0" type="line"/>
			<point x="407" y="0" type="line"/>
			<point x="407" y="198" type="line"/>
			<point x="514" y="198" type="line"/>
			<point x="464" y="226" type="line"/>
			<point x="615" y="0" type="line"/>
			<point x="710" y="0" type="line"/>
			<point x="535" y="266" type="line"/>
			<point x="202" y="266" type="line"/>
		</contour>
	</outline>
</glyph>
<glyph name="ghemiddlehook-cy" format="2">
	<unicode hex="0495"/>
	<advance width="545"/>
	<outline>
		<contour>
			<point x="85" y="0" type="line"/>
			<point x="167" y="0" type="line"/>
			<point x="167" y="415" type="line"/>
			<point x="416" y="415" type="line"/>
			<point x="416" y="482" type="line"/>
			<point x="85" y="482" type="line"/>
		</contour>
		<contour>
			<point x="119" y="205" type="curve"/>
			<point x="135" y="155" type="line"/>
			<point x="168" y="196"/>
			<point x="229" y="224"/>
			<point x="285" y="224" type="curve" smooth="yes"/>
			<point x="379" y="224"/>
			<point x="422" y="162"/>
			<point x="422" y="27" type="curve" smooth="yes"/>
			<point x="422" y="-90"/>
			<point x="392" y="-154"/>
			<point x="325" y="-180" type="curve"/>
			<point x="346" y="-226" type="line"/>
			<point x="450" y="-190"/>
			<point x="503" y="-101"/>
			<point x="503" y="40" type="curve" smooth="yes"/>
			<point x="503" y="200"/>
			<point x="438" y="294"/>
			<point x="310" y="294" type="curve" smooth="yes"/>
			<point x="239" y="294"/>
			<point x="162" y="258"/>
		</contour>
	</outline>
</glyph>
<glyph name="kabashkir-cy" format="2">
	<unicode hex="04A1"/>
	<advance width="622"/>
	<outline>
		<contour>
			<point x="508" y="0" type="line"/>
			<point x="602" y="0" type="line"/>
			<point x="431" y="267" type="line"/>
			<point x="434" y="249" type="line"/>
			<point x="593" y="482" type="line"/>
			<point x="504" y="482" type="line"/>
			<point x="348" y="251" type="line"/>
		</contour>
		<contour>
			<point x="191" y="0" type="line"/>
			<point x="272" y="0" type="line"/>
			<point x="272" y="482" type="line"/>
			<point x="191" y="482" type="line"/>
		</contour>
		<contour>
			<point x="226" y="219" type="line"/>
			<point x="388" y="219" type="line"/>
			<point x="388" y="284" type="line"/>
			<point x="226" y="284" type="line"/>
		</contour>
		<contour>
			<point x="18" y="415" type="line"/>
			<point x="220" y="415" type="line"/>
			<point x="220" y="482" type="line"/>
			<point x="18" y="482" type="line"/>
		</contour>
	</outline>
</glyph>
<glyph name="psili" format="2">
	<unicode hex="1FBF"/>
	<advance width="262"/>
	<outline>
		<contour>
			<point x="117" y="570" type="curve"/>
			<point x="163" y="560" type="line"/>
			<point x="180" y="592"/>
			<point x="192" y="623"/>
			<point x="192" y="656" type="curve" smooth="yes"/>
			<point x="192" y="697"/>
			<point x="171" y="735"/>
			<point x="99" y="749" type="curve"/>
			<point x="75" y="683" type="line"/>
			<point x="109" y="673"/>
			<point x="129" y="659"/>
			<point x="129" y="629" type="curve" smooth="yes"/>
			<point x="129" y="611"/>
			<point x="123" y="590"/>
		</contour>
	</outline>
	<anchor name="_top" x="138" y="482"/>
	<anchor name="top" x="138" y="694"/>
</glyph>
<glyph name="figuredash" format="2">
	<unicode hex="2012"/>
	<advance width="770"/>
	<outline>
		<contour>
			<point x="85" y="220" type="line"/>
			<point x="685" y="220" type="line"/>
			<point x="685" y="287" type="line"/>
			<point x="85" y="287" type="line"/>
		</contour>
	</outline>
</glyph>
<glyph name="manat" format="2">
	<unicode hex="20BC"/>
	<advance width="733"/>
	<outline>
		<contour>
			<point x="105" y="0" type="line"/>
			<point x="179" y="0" type="line"/>
			<point x="179" y="228" type="line" smooth="yes"/>
			<point x="179" y="406"/>
			<point x="252" y="525"/>
			<point x="361" y="525" type="curve" smooth="yes"/>
			<point x="476" y="525"/>
			<point x="553" y="402"/>
			<point x="553" y="218" type="curve" smooth="yes"/>
			<point x="553" y="0" type="line"/>
			<point x="627" y="0" type="line"/>
			<point x="627" y="228" type="line" smooth="yes"/>
			<point x="627" y="448"/>
			<point x="525" y="595"/>
			<point x="371" y="595" type="curve" smooth="yes"/>
			<point x="211" y="595"/>
			<point x="105" y="444"/>
			<point x="105" y="218" type="curve" smooth="yes"/>
		</contour>
		<contour>
			<point x="330" y="100" type="line"/>
			<point x="404" y="100" type="line"/>
			<point x="404" y="694" type="line"/>
			<point x="330" y="694" type="line"/>
		</contour>
	</outline>
</glyph>
<glyph name="minus" format="2">
	<unicode hex="2212"/>
	<advance width="743"/>
	<outline>
		<contour>
			<point x="127" y="296" type="line"/>
			<point x="616" y="296" type="line"/>
			<point x="616" y="365" type="line"/>
			<point x="127" y="365" type="line"/>
		</contour>
	</outline>
</glyph>
<glyph name="infinity" format="2">
	<unicode hex="221E"/>
	<advance width="960"/>
	<outline>
		<contour>
			<point x="679" y="145" type="curve" smooth="yes"/>
			<point x="789" y="145"/>
			<point x="862" y="224"/>
			<point x="862" y="343" type="curve" smooth="yes"/>
			<point x="862" y="457"/>
			<point x="793" y="533"/>
			<point x="688" y="533" type="curve" smooth="yes"/>
			<point x="472" y="533"/>
			<point x="431" y="215"/>
			<point x="279" y="215" type="curve" smooth="yes"/>
			<point x="218" y="215"/>
			<point x="178" y="266"/>
			<point x="178" y="342" type="curve" smooth="yes"/>
			<point x="178" y="415"/>
			<point x="218" y="463"/>
			<point x="278" y="463" type="curve" smooth="yes"/>
			<point x="436" y="463"/>
			<point x="462" y="145"/>
		</contour>
		<contour>
			<point x="269" y="145" type="curve" smooth="yes"/>
			<point x="482" y="145"/>
			<point x="522" y="463"/>
			<point x="679" y="463" type="curve" smooth="yes"/>
			<point x="742" y="463"/>
			<point x="782" y="411"/>
			<point x="782" y="331" type="curve" smooth="yes"/>
			<point x="782" y="258"/>
			<point x="745" y="215"/>
			<point x="684" y="215" type="curve" smooth="yes"/>
			<point x="518" y="215"/>
			<point x="507" y="533"/>
			<point x="285" y="533" type="curve" smooth="yes"/>
			<point x="173" y="533"/>
			<point x="98" y="453"/>
			<point x="98" y="333" type="curve" smooth="yes"/>
			<point x="98" y="220"/>
			<point x="166" y="145"/>
		</contour>
	</outline>
</glyph>
<glyph name="equivalence" format="2">
	<unicode hex="2261"/>
	<advance width="719"/>
	<outline>
		<contour>
			<point x="127" y="476" type="line"/>
			<point x="592" y="476" type="line"/>
			<point x="592" y="545" type="line"/>
			<point x="127" y="545" type="line"/>
		</contour>
		<contour>
			<point x="127" y="132" type="line"/>
			<point x="592" y="132" type="line"/>
			<point x="592" y="201" type="line"/>
			<point x="127" y="201" type="line"/>
		</contour>
		<contour>
			<point x="127" y="304" type="line"/>
			<point x="592" y="304" type="line"/>
			<point x="592" y="373" type="line"/>
			<point x="127" y="373" type="line"/>
		</contour>
	</outline>
</glyph>
<glyph name="rightanglebracket-math" format="2">
	<unicode hex="27E9"/>
	<advance width="321"/>
	<outline>
		<contour>
			<point x="54" y="-10" type="line"/>
			<point x="132" y="-10" type="line"/>
			<point x="273" y="371" type="line"/>
			<point x="131" y="739" type="line"/>
			<point x="46" y="739" type="line"/>
			<point x="204" y="345" type="line"/>
			<point x="204" y="392" type="line"/>
		</contour>
	</outline>
</glyph>
<glyph name="brevecomb-cy" format="2">
	<outline>
		<contour>
			<point x="209" y="565" type="curve" smooth="yes"/>
			<point x="293" y="565"/>
			<point x="355" y="619"/>
			<point x="365" y="701" type="curve"/>
			<point x="307" y="731" type="line"/>
			<point x="297" y="662"/>
			<point x="262" y="621"/>
			<point x="213" y="621" type="curve" smooth="yes"/>
			<point x="164" y="621"/>
			<point x="125" y="664"/>
			<point x="115" y="729" type="curve"/>
			<point x="56" y="699" type="line"/>
			<point x="70" y="616"/>
			<point x="129" y="565"/>
		</contour>
	</outline>
	<anchor name="_top" x="207" y="482"/>
	<anchor name="top" x="207" y="680"/>
</glyph>
<glyph name="eight.osf" format="2">
	<advance width="593"/>
	<outline>
		<contour>
			<point x="299" y="-10" type="curve" smooth="yes"/>
			<point x="443" y="-10"/>
			<point x="538" y="63"/>
			<point x="538" y="175" type="curve" smooth="yes"/>
			<point x="538" y="400"/>
			<point x="162" y="356"/>
			<point x="162" y="534" type="curve" smooth="yes"/>
			<point x="162" y="596"/>
			<point x="210" y="637"/>
			<point x="289" y="637" type="curve" smooth="yes"/>
			<point x="373" y="637"/>
			<point x="432" y="591"/>
			<point x="432" y="524" type="curve" smooth="yes"/>
			<point x="432" y="460"/>
			<point x="376" y="402"/>
			<point x="292" y="386" type="curve"/>
			<point x="353" y="356" type="line"/>
			<point x="448" y="384"/>
			<point x="507" y="455"/>
			<point x="507" y="537" type="curve" smooth="yes"/>
			<point x="507" y="637"/>
			<point x="423" y="704"/>
			<point x="299" y="704" type="curve" smooth="yes"/>
			<point x="170" y="704"/>
			<point x="83" y="631"/>
			<point x="83" y="522" type="curve" smooth="yes"/>
			<point x="83" y="291"/>
			<point x="457" y="345"/>
			<point x="457" y="169" type="curve" smooth="yes"/>
			<point x="457" y="101"/>
			<point x="405" y="59"/>
			<point x="311" y="59" type="curve" smooth="yes"/>
			<point x="209" y="59"/>
			<point x="140" y="110"/>
			<point x="140" y="184" type="curve" smooth="yes"/>
			<point x="140" y="255"/>
			<point x="201" y="315"/>
			<point x="296" y="329" type="curve"/>
			<point x="245" y="361" type="line"/>
			<point x="133" y="346"/>
			<point x="59" y="268"/>
			<point x="59" y="173" type="curve" smooth="yes"/>
			<point x="59" y="64"/>
			<point x="155" y="-10"/>
		</contour>
	</outline>
</glyph>
<glyph name="five.dnom" format="2">
	<advance width="445"/>
	<outline>
		<contour>
			<point x="200" y="-7" type="curve" smooth="yes"/>
			<point x="320" y="-7"/>
			<point x="397" y="54"/>
			<point x="397" y="149" type="curve" smooth="yes"/>
			<point x="397" y="237"/>
			<point x="329" y="290"/>
			<point x="212" y="290" type="curve" smooth="yes"/>
			<point x="184" y="290"/>
			<point x="158" y="287"/>
			<point x="133" y="280" type="curve"/>
			<point x="151" y="257" type="line"/>
			<point x="159" y="407" type="line"/>
			<point x="372" y="407" type="line"/>
			<point x="372" y="472" type="line"/>
			<point x="88" y="472" type="line"/>
			<point x="76" y="219" type="line"/>
			<point x="114" y="226"/>
			<point x="154" y="230"/>
			<point x="181" y="230" type="curve" smooth="yes"/>
			<point x="270" y="230"/>
			<point x="320" y="195"/>
			<point x="320" y="141" type="curve" smooth="yes"/>
			<point x="320" y="90"/>
			<point x="276" y="58"/>
			<point x="203" y="58" type="curve" smooth="yes"/>
			<point x="161" y="58"/>
			<point x="109" y="69"/>
			<point x="71" y="87" type="curve"/>
			<point x="50" y="28" type="line"/>
			<point x="96" y="6"/>
			<point x="145" y="-7"/>
		</contour>
	</outline>
	<note>
		five
	</note>
</glyph>
<glyph name="nine.osf" format="2">
	<advance width="601"/>
	<outline>
		<contour>
			<point x="286" y="604" type="curve" smooth="yes"/>
			<point x="155" y="604"/>
			<point x="62" y="514"/>
			<point x="62" y="381" type="curve" smooth="yes"/>
			<point x="62" y="258"/>
			<point x="144" y="171"/>
			<point x="264" y="171" type="curve" smooth="yes"/>
			<point x="364" y="171"/>
			<point x="445" y="231"/>
			<point x="490" y="337" type="curve"/>
			<point x="470" y="380" type="line"/>
			<point x="435" y="289"/>
			<point x="370" y="239"/>
			<point x="291" y="239" type="curve" smooth="yes"/>
			<point x="203" y="239"/>
			<point x="143" y="302"/>
			<point x="143" y="395" type="curve" smooth="yes"/>
			<point x="143" y="480"/>
			<point x="193" y="535"/>
			<point x="276" y="535" type="curve" smooth="yes"/>
			<point x="386" y="535"/>
			<point x="447" y="437"/>
			<point x="447" y="261" type="curve" smooth="yes"/>
			<point x="447" y="59"/>
			<point x="370" y="-41"/>
			<point x="239" y="-41" type="curve" smooth="yes"/>
			<point x="190" y="-41"/>
			<point x="132" y="-28"/>
			<point x="95" y="-5" type="curve"/>
			<point x="72" y="-66" type="line"/>
			<point x="107" y="-93"/>
			<point x="165" y="-110"/>
			<point x="230" y="-110" type="curve" smooth="yes"/>
			<point x="418" y="-110"/>
			<point x="533" y="27"/>
			<point x="533" y="266" type="curve" smooth="yes"/>
			<point x="533" y="484"/>
			<point x="436" y="604"/>
		</contour>
	</outline>
</glyph>
<glyph name="six.dnom" format="2">
	<advance width="468"/>
	<outline>
		<contour>
			<point x="243" y="-7" type="curve" smooth="yes"/>
			<point x="345" y="-7"/>
			<point x="417" y="56"/>
			<point x="417" y="149" type="curve" smooth="yes"/>
			<point x="417" y="236"/>
			<point x="355" y="293"/>
			<point x="266" y="293" type="curve" smooth="yes"/>
			<point x="195" y="293"/>
			<point x="137" y="258"/>
			<point x="104" y="192" type="curve"/>
			<point x="122" y="160" type="line"/>
			<point x="147" y="206"/>
			<point x="192" y="232"/>
			<point x="242" y="232" type="curve" smooth="yes"/>
			<point x="302" y="232"/>
			<point x="342" y="196"/>
			<point x="342" y="141" type="curve" smooth="yes"/>
			<point x="342" y="90"/>
			<point x="306" y="56"/>
			<point x="250" y="56" type="curve" smooth="yes"/>
			<point x="175" y="56"/>
			<point x="132" y="119"/>
			<point x="132" y="229" type="curve" smooth="yes"/>
			<point x="132" y="353"/>
			<point x="187" y="416"/>
			<point x="283" y="416" type="curve" smooth="yes"/>
			<point x="318" y="416"/>
			<point x="360" y="408"/>
			<point x="388" y="394" type="curve"/>
			<point x="409" y="450" type="line"/>
			<point x="378" y="468"/>
			<point x="334" y="479"/>
			<point x="285" y="479" type="curve" smooth="yes"/>
			<point x="139" y="479"/>
			<point x="55" y="386"/>
			<point x="55" y="223" type="curve" smooth="yes"/>
			<point x="55" y="75"/>
			<point x="126" y="-7"/>
		</contour>
	</outline>
	<note>
		six
	</note>
</glyph>
<glyph name="strokeshortcomb.case" format="2">
	<advance width="468"/>
	<outline>
		<contour>
			<point x="78" y="266" type="line"/>
			<point x="378" y="266" type="line"/>
			<point x="378" y="331" type="line"/>
			<point x="78" y="331" type="line"/>
		</contour>
	</outline>
	<anchor name="_center" x="228" y="298"/>
</glyph>
<glyph name="zero.lf" format="2">
	<advance width="638"/>
	<outline>
		<contour>
			<point x="316" y="-10" type="curve" smooth="yes"/>
			<point x="474" y="-10"/>
			<point x="568" y="125"/>
			<point x="568" y="352" type="curve" smooth="yes"/>
			<point x="568" y="573"/>
			<point x="477" y="704"/>
			<point x="324" y="704" type="curve" smooth="yes"/>
			<point x="164" y="704"/>
			<point x="69" y="570"/>
			<point x="69" y="342" type="curve" smooth="yes"/>
			<point x="69" y="121"/>
			<point x="161" y="-10"/>
		</contour>
		<contour>
			<point x="323" y="62" type="curve" smooth="yes"/>
			<point x="217" y="62"/>
			<point x="154" y="170"/>
			<point x="154" y="352" type="curve" smooth="yes"/>
			<point x="154" y="528"/>
			<point x="215" y="632"/>
			<point x="317" y="632" type="curve" smooth="yes"/>
			<point x="421" y="632"/>
			<point x="483" y="524"/>
			<point x="483" y="342" type="curve" smooth="yes"/>
			<point x="483" y="166"/>
			<point x="424" y="62"/>
		</contour>
	</outline>
	<anchor name="slash" x="319" y="350"/>
</glyph>
